<svg version="1.1" viewBox="0.0 0.0 835.1994750656168 540.0" fill="none" stroke="none" stroke-linecap="square" stroke-miterlimit="10" xmlns:xlink="http://www.w3.org/1999/xlink" xmlns="http://www.w3.org/2000/svg"><clipPath id="g2f35aa4ea34_0_56.0"><path d="m0 0l835.19946 0l0 540.0l-835.19946 0l0 -540.0z" clip-rule="nonzero"/></clipPath><g clip-path="url(#g2f35aa4ea34_0_56.0)"><path fill="#ffffff" d="m0 0l835.19946 0l0 540.0l-835.19946 0z" fill-rule="evenodd"/><path fill="#ffffff" d="m499.36664 526.0556l-405.88977 0c-1.6080093 0 -3.150154 -0.6387329 -4.2871857 -1.7757568c-1.1370316 -1.137085 -1.7758102 -2.6791992 -1.7758102 -4.2872314l0 -6.0629883c0 -0.0018920898 0.0015640259 -0.003479004 0.0034866333 -0.003479004l418.01227 0.003479004l0 0c0.0019226074 0 0.003479004 0.0015869141 0.003479004 0.003479004l-0.003479004 6.0595093l0 0c0 3.3485107 -2.7144775 6.0629883 -6.0629883 6.0629883z" fill-rule="evenodd"/><path fill="#2b2d31" d="m-0.12707691 44.766464l0 0c0 -24.722815 20.0418 -44.764614 44.76461 -44.764614l745.9039 0c11.872314 0 23.258362 4.7162585 31.653381 13.111252c8.3949585 8.394994 13.111206 19.781048 13.111206 31.653362l0 447.6676c0 24.72284 -20.041748 44.764587 -44.764587 44.764587l-745.9039 0c-24.722813 0 -44.76461 -20.041748 -44.76461 -44.764587z" fill-rule="evenodd"/><path fill="#232428" d="m-0.11570105 -5.5380577E-5l835.4331 0c0.0018310547 0 0.0036010742 7.3348824E-4 0.0048828125 0.0020391056c0.0013427734 0.0013056176 0.0020751953 0.0030764146 0.0020751953 0.0049228366l-0.006958008 46.575714c0 0.0038452148 -0.003112793 0.0069618225 -0.006958008 0.0069618225l-835.42615 -0.0069618225l0 0c-0.0038449764 0 -0.0069619417 -0.0031166077 -0.0069619417 -0.0069618225l0.0069619417 -46.575718l0 0c0 -0.0038449746 0.0031169653 -0.006961942 0.0069619417 -0.006961942z" fill-rule="evenodd"/><path fill="#313338" d="m74.37243 181.32648l511.87775 0c5.466736 0 10.709534 2.171646 14.575073 6.037216c3.8656006 3.8655548 6.0372314 9.108368 6.0372314 14.575104l0 335.3247c0 0.0025634766 -0.0020751953 0.004638672 -0.004638672 0.004638672l-553.0977 -0.004638672l0 0c-0.002544403 0 -0.0046081543 -0.0020751953 -0.0046081543 -0.004638672l0.0046081543 -335.32007l0 0c0 -11.383865 9.228447 -20.61232 20.612312 -20.61232z" fill-rule="evenodd"/><path fill="#999999" d="m53.760117 73.83897l0 0c0 -3.3311691 2.700447 -6.031616 6.031616 -6.031616l541.0391 0c1.5996704 0 3.13385 0.63547516 4.2650146 1.7666245c1.1311035 1.1311493 1.7666016 2.6653137 1.7666016 4.2649918l0 24.125748c0 3.3311691 -2.7004395 6.031616 -6.031616 6.031616l-541.0391 0c-3.3311691 0 -6.031616 -2.700447 -6.031616 -6.031616z" fill-rule="evenodd"/><path fill="#232428" d="m835.3271 421.66238l-235.51276 0c-6.2855835 0 -12.313721 -2.4969177 -16.7583 -6.941498c-4.44458 -4.44458 -6.9415283 -10.472717 -6.9415283 -16.7583l0 -258.97736l259.2126 0z" fill-rule="evenodd"/><path fill="#232428" d="m531.5322 206.18704l0 -56.77098c0 -2.7587585 1.0959473 -5.4045258 3.0466309 -7.3552704c1.9507446 -1.9507294 4.5965576 -3.046646 7.3552856 -3.046646l36.180786 0c3.6621094E-4 0 6.1035156E-4 2.89917E-4 6.1035156E-4 6.4086914E-4l-6.1035156E-4 77.57416l0 0c0 3.6621094E-4 -3.0517578E-4 6.5612793E-4 -6.713867E-4 6.5612793E-4l-36.180115 -6.5612793E-4l0 0c-5.744812 0 -10.4019165 -4.657089 -10.4019165 -10.401901z" fill-rule="evenodd"/><path fill="#2b2d31" d="m100.23175 216.59322l392.3602 0c3.4021606 0 6.6649475 1.3514862 9.070618 3.7571564c2.4056702 2.4056854 3.7571716 5.6684723 3.7571716 9.070602l0 64.747055c0 0.0019226074 -0.0015563965 0.003479004 -0.003479004 0.003479004l-418.01227 -0.003479004l0 0c-0.0019226074 0 -0.0034866333 -0.0015869141 -0.0034866333 -0.0035095215l0.0034866333 -64.743546l0 0c0 -7.0845795 5.743187 -12.827759 12.827766 -12.827759z" fill-rule="evenodd"/><path fill="#ffa3b0" d="m461.08792 256.77963l0 0c0 -2.6614685 2.1575317 -4.8190002 4.8190002 -4.8190002l21.102173 0c1.2780762 0 2.5037842 0.5077057 3.4075317 1.4114532c0.90374756 0.9037323 1.411438 2.1294556 1.411438 3.407547l0 19.27539c0 2.6614685 -2.1575317 4.8190002 -4.8189697 4.8190002l-21.102173 0l0 0c-2.6614685 0 -4.8190002 -2.1575317 -4.8190002 -4.8190002z" fill-rule="evenodd"/><path fill="#2b2d31" d="m100.23175 326.44907l392.3602 0c3.4021606 0 6.6649475 1.3515015 9.070618 3.7571716c2.4056702 2.4056702 3.7571716 5.668457 3.7571716 9.070618l0 64.74701c0 0.0019226074 -0.0015563965 0.0035095215 -0.003479004 0.0035095215l-418.01227 -0.0035095215l0 0c-0.0019226074 0 -0.0034866333 -0.0015563965 -0.0034866333 -0.003479004l0.0034866333 -64.74353l0 0c0 -7.0845947 5.743187 -12.827789 12.827766 -12.827789z" fill-rule="evenodd"/><path fill="#ffa3b0" d="m461.08667 366.63593l0 0c0 -2.6614685 2.1575317 -4.8190002 4.8190002 -4.8190002l21.102142 0c1.2780762 0 2.5038147 0.50772095 3.4075623 1.4114685c0.90371704 0.90371704 1.411438 2.1294556 1.411438 3.4075317l0 19.27539c0 2.6614685 -2.1575317 4.8190002 -4.8190002 4.8190002l-21.102142 0l0 0c-2.6614685 0 -4.8190002 -2.1575317 -4.8190002 -4.8190002z" fill-rule="evenodd"/><path fill="#2b2d31" d="m100.23175 436.30493l392.3602 0c3.4021606 0 6.6649475 1.3515015 9.070618 3.7571716c2.4056702 2.4056702 3.7571716 5.668457 3.7571716 9.070587l0 64.74707c0 0.0018920898 -0.0015563965 0.003479004 -0.003479004 0.003479004l-418.01227 -0.003479004l0 0c-0.0019226074 0 -0.0034866333 -0.0015869141 -0.0034866333 -0.003479004l0.0034866333 -64.74359l0 0c0 -7.084564 5.743187 -12.827759 12.827766 -12.827759z" fill-rule="evenodd"/><path fill="#ffa3b0" d="m461.08667 476.4918l0 0c0 -2.6614685 2.1575317 -4.8190002 4.8190002 -4.8190002l21.102142 0c1.2780762 0 2.5038147 0.50772095 3.4075623 1.411438c0.90371704 0.90374756 1.411438 2.129486 1.411438 3.4075623l0 19.27539c0 2.6614685 -2.1575317 4.8190002 -4.8190002 4.8190002l-21.102142 0l0 0c-2.6614685 0 -4.8190002 -2.1575317 -4.8190002 -4.8190002z" fill-rule="evenodd"/><path fill="#ffffff" d="m499.36664 306.3439l-405.88977 0c-1.6080093 0 -3.150154 -0.6387634 -4.2871857 -1.7758179c-1.1370316 -1.1370239 -1.7758102 -2.6791687 -1.7758102 -4.2871704l0 -6.0629883c0 -0.0019226074 0.0015640259 -0.003479004 0.0034866333 -0.003479004l418.01227 0.003479004l0 0c0.0019226074 0 0.003479004 0.0015563965 0.003479004 0.003479004l-0.003479004 6.0595093l0 0c0 3.3485107 -2.7144775 6.0629883 -6.0629883 6.0629883z" fill-rule="evenodd"/><path fill="#ffffff" d="m499.36664 416.19977l-405.88977 0c-1.6080093 0 -3.150154 -0.63879395 -4.2871857 -1.7758179c-1.1370316 -1.1370239 -1.7758102 -2.6791687 -1.7758102 -4.2871704l0 -6.0629883c0 -0.0019226074 0.0015640259 -0.003479004 0.0034866333 -0.003479004l418.01227 0.003479004l0 0c0.0019226074 0 0.003479004 0.0015563965 0.003479004 0.003479004l-0.003479004 6.0595093l0 0c0 3.3484802 -2.7144775 6.0629883 -6.0629883 6.0629883z" fill-rule="evenodd"/><path fill="#d0b1ff" d="m376.9147 306.34384l-283.46457 0c-1.6038284 0 -3.1419754 -0.6371155 -4.2760468 -1.7712097c-1.134079 -1.1340637 -1.7712021 -2.6722107 -1.7712021 -4.2760315l0 -6.0472717l289.5118 0z" fill-rule="evenodd"/><path fill="#999999" d="m339.41098 134.40671l0 0c0 -5.4343567 4.4053955 -9.839775 9.839783 -9.839775l122.745605 0c2.6096802 0 5.1124573 1.0366821 6.957794 2.8820038c1.8453064 1.845314 2.8819885 4.3481064 2.8819885 6.9577713l0 16.509415c0 5.4343567 -4.4053955 9.839783 -9.839783 9.839783l-122.745605 0c-5.434387 0 -9.839783 -4.405426 -9.839783 -9.839783z" fill-rule="evenodd"/><path fill="#d0b1ff" d="m376.9147 416.18372l-283.46457 0c-1.6038284 0 -3.1419754 -0.6371155 -4.2760468 -1.7711792c-1.134079 -1.1340942 -1.7712021 -2.6722107 -1.7712021 -4.276062l0 -6.047241l289.5118 0z" fill-rule="evenodd"/><path fill="#ffa3b0" d="m640.0015 376.67838l0 0c0 -5.4343567 4.4053955 -9.839783 9.839783 -9.839783l122.745605 0c2.6096802 0 5.112488 1.0366821 6.9577637 2.8819885c1.8453369 1.8453369 2.882019 4.348114 2.882019 6.957794l0 16.5094c0 5.4343567 -4.4053955 9.839783 -9.839783 9.839783l-122.745605 0c-5.434387 0 -9.839783 -4.405426 -9.839783 -9.839783z" fill-rule="evenodd"/><path fill="#d0b1ff" d="m178.07764 134.40671l0 0c0 -5.4343567 4.405411 -9.839775 9.839783 -9.839775l122.745636 0c2.6096497 0 5.1124573 1.0366821 6.9577637 2.8820038c1.8453064 1.845314 2.882019 4.3481064 2.882019 6.9577713l0 16.509415c0 5.4343567 -4.405426 9.839783 -9.839783 9.839783l-122.745636 0c-5.434372 0 -9.839783 -4.405426 -9.839783 -9.839783z" fill-rule="evenodd"/><path fill="#232428" d="m734.47864 441.74872l56.770996 0c2.758728 0 5.40448 1.0959167 7.3552246 3.0466614c1.9507446 1.9507141 3.046692 4.5964966 3.046692 7.355255l0 36.180756c0 3.6621094E-4 -3.0517578E-4 6.4086914E-4 -6.713867E-4 6.4086914E-4l-77.57416 -6.4086914E-4l0 0c-3.6621094E-4 0 -6.713867E-4 -2.746582E-4 -6.713867E-4 -6.4086914E-4l6.713867E-4 -36.180115l0 0c0 -5.744812 4.6571045 -10.4019165 10.4019165 -10.4019165z" fill-rule="evenodd"/><path fill="#999999" d="m100.50394 238.71933l0 0c0 -4.601013 3.7298584 -8.330872 8.330879 -8.330872l58.078407 0c2.209488 0 4.328476 0.8777008 5.890808 2.4400482c1.5623474 1.5623474 2.4400635 3.6813354 2.4400635 5.8908234l0 33.32251c0 4.601013 -3.7298584 8.330872 -8.330872 8.330872l-58.078407 0c-4.601021 0 -8.330879 -3.7298584 -8.330879 -8.330872z" fill-rule="evenodd"/><path fill="#999999" d="m100.50394 349.0763l0 0c0 -4.601013 3.7298584 -8.330902 8.330879 -8.330902l58.078407 0c2.209488 0 4.328476 0.87771606 5.890808 2.4400635c1.5623474 1.5623474 2.4400635 3.6813354 2.4400635 5.8908386l0 33.32248c0 4.601013 -3.7298584 8.330872 -8.330872 8.330872l-58.078407 0c-4.601021 0 -8.330879 -3.7298584 -8.330879 -8.330872z" fill-rule="evenodd"/><path fill="#999999" d="m100.50394 458.4306l0 0c0 -4.601013 3.7298584 -8.330872 8.330879 -8.330872l58.078407 0c2.209488 0 4.328476 0.87771606 5.890808 2.4400635c1.5623474 1.5623474 2.4400635 3.6813354 2.4400635 5.890808l0 33.32251c0 4.601013 -3.7298584 8.330872 -8.330872 8.330872l-58.078407 0c-4.601021 0 -8.330879 -3.7298584 -8.330879 -8.330872z" fill-rule="evenodd"/><path fill="#232428" d="m835.3271 539.99994l-835.43304 0c-0.0018464252 0 -0.0036172196 -7.324219E-4 -0.004922837 -0.0020141602c-0.0013056174 -0.0013427734 -0.0020391047 -0.003112793 -0.0020391047 -0.0049438477l0.0069619417 -53.85132c0 -0.0038452148 0.0031169653 -0.006958008 0.0069619417 -0.006958008l835.4261 0.006958008l0 0c0.0038452148 0 0.007019043 0.0031433105 0.007019043 0.0069885254l-0.007019043 53.851288l0 0c0 0.0038452148 -0.003112793 0.006958008 -0.006958008 0.006958008z" fill-rule="evenodd"/></g></svg>