<svg width="836" height="540" viewBox="0 0 836 540" fill="none" xmlns="http://www.w3.org/2000/svg">
<g clip-path="url(#clip0_8_2)">
<mask id="mask0_8_2" style="mask-type:luminance" maskUnits="userSpaceOnUse" x="0" y="0" width="836" height="540">
<path d="M0 0H835.199V540H0V0Z" fill="white"/>
</mask>
<g mask="url(#mask0_8_2)">
<path fill-rule="evenodd" clip-rule="evenodd" d="M499.367 526.056H93.4769C91.8689 526.056 90.3267 525.417 89.1897 524.28C88.0527 523.143 87.4139 521.601 87.4139 519.993V513.93C87.4139 513.928 87.4154 513.926 87.4174 513.926L505.43 513.93C505.432 513.93 505.433 513.931 505.433 513.933L505.43 519.993C505.43 523.341 502.715 526.056 499.367 526.056Z" fill="#3D4976"/>
<path fill-rule="evenodd" clip-rule="evenodd" d="M-0.127075 44.7665C-0.127075 20.0436 19.9147 0.00184631 44.6375 0.00184631H790.541C802.414 0.00184631 813.8 4.7181 822.195 13.1131C830.59 21.5081 835.306 32.8941 835.306 44.7665V492.434C835.306 517.157 815.264 537.199 790.541 537.199H44.6375C19.9147 537.199 -0.127075 517.157 -0.127075 492.434V44.7665Z" fill="#3D4976"/>
<path fill-rule="evenodd" clip-rule="evenodd" d="M74.3724 181.326H586.25C591.717 181.326 596.96 183.498 600.825 187.364C604.691 191.229 606.862 196.472 606.862 201.939V537.263C606.862 537.266 606.86 537.268 606.858 537.268L53.7602 537.263C53.7576 537.263 53.7556 537.261 53.7556 537.259L53.7602 201.939C53.7602 190.555 62.9886 181.326 74.3724 181.326Z" fill="#3C5480"/>
<path fill-rule="evenodd" clip-rule="evenodd" d="M53.7601 73.839C53.7601 70.5078 56.4606 67.8073 59.7917 67.8073H600.831C602.43 67.8073 603.965 68.4428 605.096 69.574C606.227 70.7051 606.862 72.2393 606.862 73.839V97.9647C606.862 101.296 604.162 103.996 600.831 103.996H59.7917C56.4606 103.996 53.7601 101.296 53.7601 97.9647V73.839Z" fill="#90B4DD"/>
<path fill-rule="evenodd" clip-rule="evenodd" d="M835.327 421.662H599.814C593.529 421.662 587.501 419.165 583.056 414.721C578.611 410.276 576.115 404.248 576.115 397.963V138.985H835.327V421.662Z" fill="#29345B"/>
<path fill-rule="evenodd" clip-rule="evenodd" d="M734.46 442H791.541C794.315 442 796.975 443.129 798.937 445.139C800.898 447.149 802 449.876 802 452.718V489.999C802 489.999 802 490 802 489.999H724.001C724.001 490 724 489.999 724.001 489.999V452.718C724.001 446.799 728.683 442 734.46 442Z" fill="#29345B"/>
<path fill-rule="evenodd" clip-rule="evenodd" d="M100.232 216.593H492.592C495.994 216.593 499.257 217.945 501.663 220.35C504.068 222.756 505.42 226.019 505.42 229.421V294.168C505.42 294.17 505.418 294.172 505.416 294.172L87.404 294.168C87.4021 294.168 87.4005 294.166 87.4005 294.165L87.404 229.421C87.404 222.336 93.1472 216.593 100.232 216.593Z" fill="#496F9A"/>
<path fill-rule="evenodd" clip-rule="evenodd" d="M461.088 256.78C461.088 254.118 463.245 251.961 465.907 251.961H487.009C488.287 251.961 489.513 252.468 490.417 253.372C491.32 254.276 491.828 255.502 491.828 256.78V276.055C491.828 278.716 489.671 280.874 487.009 280.874H465.907C463.245 280.874 461.088 278.716 461.088 276.055V256.78Z" fill="#58C0F8"/>
<path fill-rule="evenodd" clip-rule="evenodd" d="M100.232 326.449H492.592C495.994 326.449 499.257 327.801 501.663 330.206C504.068 332.612 505.42 335.875 505.42 339.277V404.024C505.42 404.026 505.418 404.027 505.416 404.027L87.404 404.024C87.4021 404.024 87.4005 404.022 87.4005 404.02L87.404 339.277C87.404 332.192 93.1472 326.449 100.232 326.449Z" fill="#496F9A"/>
<path fill-rule="evenodd" clip-rule="evenodd" d="M461.087 366.636C461.087 363.974 463.244 361.817 465.906 361.817H487.008C488.286 361.817 489.512 362.325 490.415 363.228C491.319 364.132 491.827 365.358 491.827 366.636V385.911C491.827 388.573 489.669 390.73 487.008 390.73H465.906C463.244 390.73 461.087 388.573 461.087 385.911V366.636Z" fill="#58C0F8"/>
<path fill-rule="evenodd" clip-rule="evenodd" d="M100.232 436.305H492.592C495.994 436.305 499.257 437.656 501.663 440.062C504.068 442.468 505.42 445.731 505.42 449.133V513.88C505.42 513.882 505.418 513.883 505.416 513.883L87.404 513.88C87.4021 513.88 87.4005 513.878 87.4005 513.876L87.404 449.133C87.404 442.048 93.1472 436.305 100.232 436.305Z" fill="#496F9A"/>
<path fill-rule="evenodd" clip-rule="evenodd" d="M461.087 476.492C461.087 473.83 463.244 471.673 465.906 471.673H487.008C488.286 471.673 489.512 472.181 490.415 473.084C491.319 473.988 491.827 475.214 491.827 476.492V495.767C491.827 498.429 489.669 500.586 487.008 500.586H465.906C463.244 500.586 461.087 498.429 461.087 495.767V476.492Z" fill="#58C0F8"/>
<path fill-rule="evenodd" clip-rule="evenodd" d="M499.367 306.344H93.4769C91.8689 306.344 90.3267 305.705 89.1897 304.568C88.0527 303.431 87.4139 301.889 87.4139 300.281V294.218C87.4139 294.216 87.4154 294.214 87.4174 294.214L505.43 294.218C505.432 294.218 505.433 294.219 505.433 294.221L505.43 300.281C505.43 303.629 502.715 306.344 499.367 306.344Z" fill="#D9D9D9"/>
<path fill-rule="evenodd" clip-rule="evenodd" d="M499.367 416.2H93.4769C91.8689 416.2 90.3267 415.561 89.1897 414.424C88.0527 413.287 87.4139 411.745 87.4139 410.137V404.074C87.4139 404.072 87.4154 404.07 87.4174 404.07L505.43 404.074C505.432 404.074 505.433 404.075 505.433 404.077L505.43 410.137C505.43 413.485 502.715 416.2 499.367 416.2Z" fill="#D9D9D9"/>
<path fill-rule="evenodd" clip-rule="evenodd" d="M376.915 306.344H93.4501C91.8463 306.344 90.3082 305.707 89.1741 304.573C88.04 303.439 87.4029 301.9 87.4029 300.297V294.249H376.915L376.915 306.344Z" fill="#58C0F8"/>
<path fill-rule="evenodd" clip-rule="evenodd" d="M339.411 134.407C339.411 128.972 343.816 124.567 349.251 124.567H471.996C474.606 124.567 477.109 125.604 478.954 127.449C480.799 129.294 481.836 131.797 481.836 134.407V150.916C481.836 156.35 477.431 160.756 471.996 160.756H349.251C343.816 160.756 339.411 156.35 339.411 150.916V134.407Z" fill="#A3B4E2"/>
<path fill-rule="evenodd" clip-rule="evenodd" d="M376.915 416.184H93.4501C91.8463 416.184 90.3082 415.547 89.1741 414.413C88.04 413.278 87.4029 411.74 87.4029 410.136V404.089H376.915L376.915 416.184Z" fill="#58C0F8"/>
<path fill-rule="evenodd" clip-rule="evenodd" d="M640.001 376.678C640.001 371.244 644.407 366.839 649.841 366.839H772.587C775.197 366.839 777.699 367.875 779.545 369.721C781.39 371.566 782.427 374.069 782.427 376.678V393.188C782.427 398.622 778.021 403.028 772.587 403.028H649.841C644.407 403.028 640.001 398.622 640.001 393.188V376.678Z" fill="#A3B4E2"/>
<path fill-rule="evenodd" clip-rule="evenodd" d="M178.078 134.407C178.078 128.972 182.483 124.567 187.917 124.567H310.663C313.273 124.567 315.776 125.604 317.621 127.449C319.466 129.294 320.503 131.797 320.503 134.407V150.916C320.503 156.35 316.097 160.756 310.663 160.756H187.917C182.483 160.756 178.078 156.35 178.078 150.916V134.407Z" fill="#58C0F8"/>
<path fill-rule="evenodd" clip-rule="evenodd" d="M531.532 206.187V149.416C531.532 146.657 532.628 144.012 534.579 142.061C536.53 140.11 539.175 139.014 541.934 139.014H578.115C578.115 139.014 578.115 139.014 578.115 139.014V216.589C578.115 216.589 578.115 216.589 578.115 216.589H541.934C536.189 216.589 531.532 211.932 531.532 206.187Z" fill="#29345B"/>
<path fill-rule="evenodd" clip-rule="evenodd" d="M100.504 238.719C100.504 234.118 104.234 230.388 108.835 230.388H166.913C169.123 230.388 171.242 231.266 172.804 232.829C174.366 234.391 175.244 236.51 175.244 238.719V272.042C175.244 276.643 171.514 280.373 166.913 280.373H108.835C104.234 280.373 100.504 276.643 100.504 272.042V238.719Z" fill="#3D4976"/>
<path fill-rule="evenodd" clip-rule="evenodd" d="M100.504 349.076C100.504 344.475 104.234 340.745 108.835 340.745H166.913C169.123 340.745 171.242 341.623 172.804 343.185C174.366 344.748 175.244 346.867 175.244 349.076V382.399C175.244 387 171.514 390.73 166.913 390.73H108.835C104.234 390.73 100.504 387 100.504 382.399V349.076Z" fill="#3D4976"/>
<path fill-rule="evenodd" clip-rule="evenodd" d="M100.504 458.431C100.504 453.83 104.234 450.1 108.835 450.1H166.913C169.123 450.1 171.242 450.977 172.804 452.54C174.366 454.102 175.244 456.221 175.244 458.431V491.753C175.244 496.354 171.514 500.084 166.913 500.084H108.835C104.234 500.084 100.504 496.354 100.504 491.753V458.431Z" fill="#3D4976"/>
<path d="M0 47C0 21.0426 21.0426 0 47 0H788C813.957 0 835 21.0426 835 47H0Z" fill="#29345B"/>
<path d="M0 490H835C835 517.614 812.614 540 785 540H50C22.3858 540 0 517.614 0 490Z" fill="#29345B"/>
</g>
</g>
<defs>
<clipPath id="clip0_8_2">
<rect width="835.199" height="540" fill="white"/>
</clipPath>
</defs>
</svg>
